<svg xmlns="http://www.w3.org/2000/svg" viewBox="0 0 684.5 209.96"><path fill="#A4A2BD" d="M29.52,1.4c6.17-4.41,14.21,4.04,20.16-.24,3.07,1.35,6.6-.9,10.56-.48,2.4,.25,4.72,1.27,7.2,1.44,7.69,.52,15.74-.32,19.68,4.56,9.69,.69,17.17,1.75,22.32,6.96,2.71,2.73,4.25,6.24,7.2,8.88-.2,.6-.31,1.29-.24,2.16,.9,4.87,10.64,5.34,8.16,11.28-.29,.69-.88,.9-1.2,1.68-.35,.84-.06,1.98-.48,2.64-1.43,2.25-5.25,2.32-5.52,5.76-3.81,1.87-10.88,.48-10.32,6.72-2.04,2.19-2.4,5.76-5.28,7.44-1.56,.91-3.6,.41-5.76,1.2-4.39,1.61-7.2,9.66-12.96,9.36-.73-.04-1.29-.77-2.16-.96-2.85-.61-7.16,1.47-9.6-.72-1.16,3.88-8.25,1.83-10.32,4.8-3.1-.15-5.49,.42-7.92-.24-2.18,2-1.39,6.04,.96,7.2,1.39,3.79,.19,7.52,.24,11.28,.03,2.26,1.02,4.05,1.44,6.24,.75,3.9,.33,7.77,1.44,11.52,.97,.47,1.52-1.28,2.88-1.2,.78,2.28-1.23,3.86-1.2,6,.02,1.2,.96,2.52,1.2,3.84,.35,1.92-.42,4.03-.24,6,.37,4.14,2.95,8.56,1.44,13.68-3.7,2.24-.98,5.26,1.2,7.2,0,.96-.23,1.69-.72,2.16,.66,1.02,2.08,1.28,2.64,2.4-.83,4.55,1.47,8.9-.48,12.24-.56,.96-1.75,1.27-2.4,2.16-.74,1.01-.9,3.05-1.68,4.56-.43,.83-1.38,1.45-1.68,2.16-.73,1.72-.27,4.03-2.16,5.28,2.14,1.7,3.53,4.15,3.36,8.16-5.25,7.17,5.05,16.83,1.68,25.44-4.99-6.53-7.53-15.51-8.4-26.16-.44-1.24-2.68-.68-3.36-1.68-.19-1.87,1.09-2.27,1.44-3.6-.49-.59-1.25,.59-1.92,0-.41-5.89,2.94-8.78,.96-13.68-.33-.79-1.14-1.1-1.92-1.44-.2-2.76-1.87-4.05-2.4-6.48-1.34-.58-2.61-1.23-3.12-2.64-1.16,.04-1.8,1.61-2.88,.96-.46-2.24,1.42-3.31,1.44-5.28,.03-2.78-2.7-5.77-.24-8.64-1.67-3.45-3.38-11.88,.24-14.4,.38-2.86-1.5-3.46-2.4-5.04-.16-1.04,.27-1.49,.72-1.92-.55-.97-1.9-1.14-2.4-2.16,.37-2.96-.04-5.24,0-8.4-4.04-2.11-1.62-10.46-1.68-13.92-.89-.71-2.74-.46-4.08-.72,1.64-4.33,1.25-10.99-2.16-12.96,.36-1.73,.83-3.33,.72-5.52-4.12,1.08-8.28-.02-10.8-1.92-1.78,.97-3.47-.34-5.28-.48-.94-.07-1.91,.4-2.88,.24-3-.49-6.09-3.62-6-5.76,.11-2.52,5.11-5.44,7.44-7.2,3.81-2.88,7.33-5.46,11.76-5.76-2.21-.51-4.68-.76-6.72-1.44-.87-1.95-4.04-4.56-3.6-7.2,.27-1.64,1.53-1.46,2.4-2.88-1.98-2.19-2.76-5.45-.96-9.36-1.6-2.27-4.32-.09-6.24-.24-5.26-.42-2.99-9.21-8.64-9.84,1.96-1.56,4.18-2.86,6.48-4.08-4.2-3.35,.71-9.33-.72-13.92C9.51,5.8,11.53,.02,15.84,3.56c3.9-1.31,9.21-5.81,13.68-2.16Zm56.16,13.2c1.15-.29,2.55-.33,3.6-.72-.06-2.76-4.01-2.04-3.6,.72Zm-45.6,5.76c2.35,.19,3.98-.34,6.24-.24,1.51,1.53,6.42-.34,6.72,2.4-2,4-7.64,4.36-11.76,6.24-.9,1.66-2.33,2.79-5.04,2.64,1.44,2.5,3.11,2.92,3.36,5.52,.32,3.32-2.93,6.5-2.4,9.36,.27,1.45,1.73,1.76,2.16,3.12-.86,3.42-.57,7.74,.96,10.08,1.89,.6,3.77-.21,5.04-.96-.09-2.37,1.38-3.37,.48-5.28,1.76-1.56,3.28-4.24,6.72-3.36,2.02-.78,2.61-2.99,5.28-3.12,1.03,4.09,4.55,5.69,6.24,9.12,4.53-.35,5.26-8.51,10.56-5.04,.68,1.5-1.87,1.99-.72,2.4,8.38-.42,11.6-6,16.8-9.6-.4-3.44,2.36-3.72,2.16-6.96-2.04-.93-3.22-3.16-5.52-3.36-2.73-.24-5.99,2.31-9.36,.72-.46-2.18-3.01-2.27-3.12-4.8,1.95-1.53,6.21-3.23,5.28-6.24-.73-2.36-5.81-.69-6.96-3.12-2.91-.51-3.34,1.46-4.8,2.4-2.06-2.39-7.68,.2-9.36-2.64-.03,.69-1,.44-1.68,.48-1.36-.72-2.29-1.87-3.6-2.64-1.35-.3-1.53,1.53-2.4,.96-3.21-2.31-7.72-3.32-12.24-4.32-.9,2.44,1.29,3.6,.96,6.24Zm-11.52,5.76c.82,.22,1.04,1.04,2.16,.96,1.38-1.02,2.39-2.41,2.16-5.04-3.12-2.7-3.73,2-4.32,4.08Z"/><path fill="#A4A2BD" d="M430.08,24.92c.27,.61,1.86-.1,2.16,.48,.77,3.73-1.62,6.16-1.44,10.08-2.57-.68-4.97,3.81-7.68,1.44-2.78,2.87-8.52-.88-11.52,1.44-2.59-.98-7.27-1.64-9.12,.48-1.59-.65-2.75,.19-3.84,.72-1.29,.33-1.01-.91-2.16-.72-2.58,.8-.3,3.87-.48,6-.08,.98-1.19,1.77-1.44,3.12-.75,4.11,1.88,8.95,1.68,12.72-.18,3.33-1.42,5.99-4.8,6.24,1.1,.91,1.32,4.76,3.12,5.76-1.7,2.86-.76,5.4-3.12,7.44,.49,3.07,1.96,7.21,.96,9.6-.49-.87-.12-2.6-1.68-2.4-1.86,1.65,.45,6.02-.96,8.16,1.23,1.53,.31,3.65,1.2,4.56-1.65,4.28,1.45,10.68-1.2,13.92,1.32,2.42-.58,6.59,.72,8.88-.33,.63-1.01,.91-1.2,1.68-.11,4.15,1.59,8.47-.48,11.28,.47,2.19,1.98,4.55,2.64,5.76-6.33,1.87-8.48-4.44-8.64-10.32-.17-.99,.84,.25,1.2-.48-2.07-2.69-5.52-6.16-4.8-10.08-1.59-2.99-7.56-4.83-5.28-9.36,.32-2.01-.72-3.91,0-5.52-.84-.6-1.31-2.3-.72-3.6,.96-.31,1.93-.62,3.36-.48,.45-1.63-1.66-3.87-.72-6-5.96-5.96,6.76-16.4-2.64-20.88,.71-1.6,1.18-3.46,3.12-3.84-1.78-4.3-7.41-1.39-9.12-4.8-1.06-2.11,.88-4.71-1.92-5.52,.41-5.3,10.43-.46,10.56-5.52-2.05-1.51-5.08-2.69-5.28-5.28-.15-2.02,2.4-2.93,1.44-5.28,1.42-.82,3.04-1.44,3.36-3.36-.65-1.43-2.76-1.4-3.36-2.88-.31-2.58,3.84-3.17,3.36-5.52-.42-2.05-4.25-1.39-6.72-1.68-4.64-.54-11.18-1.26-15.84,.48-1.05,.39-1.99,1.34-2.88,1.44-2.88,.32-6-2.12-6.96-3.12,0-2.07,.59-3.57,1.68-4.56-2.6-2.14-7.39-1.1-9.36,.24-1.04-6.25,4.68-7.8,11.28-7.2,.99-.11-.1,.51,.24,1.2,1.91-.15,3.18,.34,4.32,.96,.93-.72,2.06-.26,3.36-.48,1.35-.23,2.8-1.02,4.32-1.2,3.19-.37,6.41,.3,7.92-1.92,7.12,1.65,14.35-3.72,18.72,.96,.96,.36,2.25-.39,3.12-.24,1,.18,1.27,1.15,2.16,1.44,2.55,.84,5.21,.22,7.68-.24,4.16-3.19,15.33-7.08,23.04-6.24,5.67,.62,7.56,6.38,8.64,12.24Z"/><path fill="#A4A2BD" d="M641.04,14.84c1.19,3.93,4.89,5.35,7.2,8.16,.9,.18,1.15-.29,1.92-.24,1.21,1.59,2.95,2.65,3.12,5.28-.2,.84-1.49,.59-1.68,1.44,.1,1.1-.24,2.64,.24,3.36,1.73-.13,1.48-2.67,3.12-2.64,1.17,.02,2.55,2.21,1.68,3.6,2.89,2.75,2.91,7.46,4.32,11.28-.23,0-.19,.29-.24,.48-.45,.67-1.78,.46-2.88,.48-.06,.94,.52,1.24,.72,1.92,.98,.18,.83-.77,1.92-.48,.51,.69,0,2.39,.48,3.12-1,.2-1.48,.92-1.68,1.92,2.01,1.97,5.54,3.1,5.76,6,.16,2.17-2.89,3.2-1.44,5.52-1.72,1.08-3.49,2.11-4.32,4.08,1.42,.98,3.2,1.6,4.32,2.88-.5,1.1-1.72,1.48-1.44,3.36-1.62,.94-3.68,1.44-5.04,2.64,3.51,2.34,2.66,5.6,1.92,10.56,5.82,5.3,16.98,5.26,24.96,8.4-.04,.76,.64,.8,.48,1.68-1,1.41-2.99,1.04-4.32,.96-8.23-.47-21.02-5.31-28.32,.24,.58,2.2,3.14,5.43,.24,6.96-.15,2.07,.06,3.78,1.2,4.56-.69,1.85-.8,4.23-.24,6.24,1.05,1.19,4.01,.47,3.84,2.88-1.09,.59-2.61-.19-3.36-.72-.44,1.23-1.59,3.53-.72,4.56,.41,.62,1.12-.46,1.92-.24,1.27,.89,.26,4.06,2.64,3.84-.79,2.27,.91,3.58,.96,5.76-2.55,1.37-5.16-.98-7.44-1.44-1.09,.59-1.47,1.89-2.16,2.88,1.53,2.28,3.6,5.12,3.36,8.4-3.68-.05-6.02,3.04-3.36,6,.42,.14,1.41-.29,1.44,.24,.65,1.83-1.73,2.34-2.4,3.6,.12,2.17,1.23,4.46,.96,6.24-.3,1.96-3.19,4.14-4.8,5.52-2.05,1.77-4.19,3.72-6.48,3.84,.86-2.05-1.79-3.06-.72-5.28,.58-.46,1.93-.15,2.88-.24,.01-1.05-.6-1.48-.96-2.16-1.01,.19-.74,.93-1.92,.48-1-2.69,.28-3.59,1.44-5.04-2.81-2.6-6.15-3.81-5.28-8.64,.59-3.3,1.95-6.54,4.32-8.64-1.17-.83-2.64-1.37-3.36-2.64,1.02-1.22,1.06-3.42,2.4-4.32,.39-12.17,7.87-17.25,8.64-29.04,.15-1.03-.78-.98-.72-1.92,.05-1.55,.85-2.94,0-4.08-4.4,1.11-8.52-1.19-12.96-1.2-1.3,0-2.5,.56-3.84,.72-5.44,.67-11.13,.52-16.32,0-.14,2.06,2.14,1.7,2.4,3.36-2.88,.86-4.74-1.32-6.96-1.92-.91,.53-1.16,1.72-1.92,2.4,.23,1.31,1.14,.75,2.4,.72,.63,1.21,.42,3.26,2.16,3.36-.84,1.95,1.02,2.88,.72,5.04-2.52,.53-5.04-.83-6.72-1.92-.86,.58-1.49,1.39-2.16,2.16,1.36,2.38,3.78,4.78,3.36,8.16-4.47-.86-5.26,4.68-1.44,5.28-.04,.91-.34,1.58-1.2,1.68,1.01,2.15,1.75,3.75,2.64,6.24,.2,.54,.88,1.51,.96,1.92,.02,.13-.09,2.22,0,3.36,.17,2.13-.46,3.97-.48,5.52-.08,7.01,4.92,13.85,3.84,21.12-.92-2.74-4.5-4.73-6.48-7.2-.5,.14-1.58-.3-1.68,.24-1.59-1.21-2.73-2.87-3.36-5.04,1.69-.12,2.57-2.91,1.44-4.32-1.63,.34-1.18,2.52-2.88,2.4-1.09-.08-2.51-2.38-1.2-3.36-2.82-1.82-2.77-6.51-4.08-9.84,.14-.66,.25-1.35,1.2-1.2-1.71-2.61-3.79-4.85-5.28-7.68,1.44-3.63,.39-10.85,4.8-12.72-.89-.87-2.17-1.34-3.12-2.16-.05-.87,.9-1.29,1.2-1.92,.97-2.03-.22-2.21-.48-4.8-.72-.4-1.55-.69-1.92-1.44,.1-1.5,.54-2.66,1.2-3.6-1.49-6.93,.51-14.09,1.92-19.68,.6-.52,1.34-.9,1.92-1.44,.46-1.64-2.13-1.86-2.4-3.36-.24-1.35,1.73-3.7,2.4-5.28,1.78-4.16,4.77-8.5,11.04-7.68,.87,1.61,1.07,3.89,2.64,4.8,.55,5.59-1.09,8.99-3.84,11.28,.08,1.86-.81,4.01,.48,5.04,3.97-.03,7.79,2.43,12,2.16,1.05-.07,2.12-.62,3.12-.72,7.83-.81,14.88,2.58,23.04,2.16,.78,.06,.51-.93,1.2-.96,2.77,1.78,5.29-1.42,3.36-3.6-.87,.13-1.43,.58-2.16,.24-.69-1.31-.52-3.48-2.4-3.6,.78-1.96-.74-3.33-.96-5.04,2.33-1.67,5.72,.7,7.68,1.68,.56-1.04,1.92-1.28,2.16-2.64-1.55-2.32-3.85-5.07-3.6-8.4,1.14-.86,3.57-.43,4.32-1.68,.34-2.74-.93-3.87-2.64-4.56,.04-2.27,2.51-1.7,2.4-3.36-.12-1.77-2.4-.56-2.64-2.88-.07-1.27,1.66-.74,1.92-1.68-.77-1.63-3.63-1.17-4.32-2.88,.92-.92,2.35-1.33,3.12-2.4-.26-1.34-1.65-1.55-2.16-2.64,.03-9.75-5.24-17.45-4.56-27.84Z"/><path fill="#A4A2BD" d="M307.68,25.64c.08,1.12-.74,1.34-.96,2.16,4.36,2.28,10.45,2.83,15.36,4.56,2.23,3.45,7.7,3.66,9.12,7.92,4.42,2.54,7.44,6.48,7.44,13.44,.59,1.23,1.69,1.46,2.4,2.4,2.18,2.89,2.11,7.3,3.84,10.56,.7,1.33,2.59,2.02,2.16,3.84,3.13-.68,7.82-1.2,8.16,1.92,.21,1.96-2.2,2.78-2.64,5.04-.57,2.89,1.29,6.47-1.92,6.72-1.66,.13-1.44-1.17-2.88-1.68-.71-.21-1.18,1.03-1.44,.48-2.32-2.23-6.03-.28-8.16-2.16-1.44-1.27-1.24-3.34-3.36-3.84,1.1-4.46-1.31-5.58-4.08-6.48,1.9-5.63-1.8-6.2-4.8-8.88-1.49-1.34-1.99-2.07-2.88-4.32-1.89,.55-2.67-1.31-4.32-1.44-1.66-.13-3.83,1.75-4.8-.72-.33-.98,.55-2.15,.24-3.84-1.69-.36-1.99,.34-3.6,0-1.36-.29-2.5-2.36-3.36-2.4-.07,0-4.94,2.52-5.28,2.88-.42,.44-.53,1.57-.96,1.92,1.27,.86,.77,3.33,1.68,5.04-.9,.78-1.12,2.23-1.68,3.36-.77,.05-1.02-.42-1.92-.24-1.27,4.51,2,12.52-1.92,14.64,1.27,1.69-.6,5.43,.96,6.48-1.5,.48-2.01,3.92-.72,5.04-.35,7.99,4.54,16.07,4.08,24.96-.96-2.71-4.38-4.86-6.48-7.2,.17,1.48,2.37,5.3,.48,7.44,1.28,2.64,1.19,5.32,2.88,7.68,2.16-2,5.33-2.99,8.64-3.84,.7-1.67-.61-3.23-.48-4.56,.08-.8,1.02-1.21,1.2-2.16,.24-1.27-.76-2.75-.48-3.84,1.05-4.1,7.64-.94,10.32-3.6-.37-2.32-3.83-5.15,0-6.24-.2-1.34,.25-2.24-.24-3.36-1.71-3.9-11.21-1.5-12.72-6,1.6-1.43,3.99-1.86,6.24-2.64,2.03-.7,4.75-2.3,6.72-2.16,2.21,.15,4.48,3.04,7.92,1.68,.56,.32,.9,.86,1.2,1.44,6.35-1.41,9.59,5.22,15.84,2.4,1.91,4.91,8.37,6.48,7.92,12.96-3.72-.52-3.89-4.59-6.48-6.24-2.19,.25-4.15-.67-6,0-.37,1.23-.65,2.55-.96,3.84,1.62,.18,1.76-1.12,3.6-.72,1.03,5.51-4.84,4.12-7.2,6.24-.07,1.19,.04,2.2,.24,3.12-.28,.28-.85,.27-1.44,.24v2.64c-1.16,.36-2.34,.7-3.36,1.2-.79,1.45-1.35,3.13-2.16,4.56-5.54-.1-4.43,6.45-8.64,7.68,.55-3.29-2.38-4.04-4.8-3.6-.04,1.98,2.96,1.86,1.92,4.08-6.92-.04-7.77,5.99-15.36,5.28-.62-.5-1.59-.65-1.92-1.44-3.57,4.33-8.57-.63-11.04-3.12-.81-2.79,.71-7.91-1.44-9.36,1.19-2.1-.32-3.22-.24-5.04,.03-.79,.8-1.2,.96-1.92,.28-1.25-.24-3.06,.24-4.56,.57-1.78,1.91-2.71,1.92-3.84,0-.88-1.64-2.28-1.68-3.36,0,0,.69-1.06,.72-.96-.62-1.96-2.74-2.82-3.12-5.52-.28-2-.36-3.1-.96-5.04,.45-.67,1.78-.46,2.88-.48-.06-.74-.52-1.08-.72-1.68-.57-.55-.88,.53-1.92,.24-.74-2.05,.39-3.01,1.2-4.56-2.17-1.72-5.16-2.93-5.04-6,.07-1.83,2.25-2.63,1.2-4.8,1.62-.62,3.2-1.28,3.36-3.36-.82-1.18-2.53-1.47-3.36-2.64,1.08-1.72,1.45-4.15,4.08-4.32-1.19-2.05,.15-3.94-.96-6,.62-2.1,1.43-4.01,2.88-5.28,.82-6.46,5.49-9.07,7.92-13.92,.28-1.99-.82-3.97,.24-5.28,1.87,0,3.14-.42,5.28-.72,.81-.12,2.12,.16,2.64,0,1.66-.52,3.61-4.04,4.8-.72Z"/><path fill="#A4A2BD" d="M158.64,30.68c1.33,1.2,2.97-.07,4.32,1.44,.72-.32,1.55-.53,1.92-1.2,.71,.25,.54,1.38,1.44,1.44,1.11-.15,2.75-1.02,3.6,0,.57,1.32-.71,1.3-.96,2.4,1.19,3.61,2.46,7.14,4.8,9.6-.06,1.14-.74,1.66-.96,2.64,.17,4.06,1.03,9.68-1.92,11.28-.53,2.41-.87,4.44-2.4,6.24,1.26,2.31-.2,3.66-1.44,5.28,.14,1.72,2.14,2.63,2.16,4.8,.01,1.34-1.38,2.83-1.44,4.32-.05,1.28,.79,2.63,.72,4.08-.03,.67-.66,1.27-.72,1.92-.1,1.08,.89,2.73,.96,4.08,.04,.88-.32,1.73-.24,2.16,.36,2.04,2.13,3.24,3.84,4.56,1.66-.66,2.92-.82,5.28-1.44,3.38-.89,5.26-4.03,8.16-1.92,3.13-1.27,5.85-2.2,9.84-2.16,.89-.31,.77-1.63,1.44-2.16,1.25,.51,2.38,1.13,3.12,2.16,3.51-1.08,8.11,.39,8.4,4.08-4.41,.46-6.14,3.62-8.16,6.48-.76-.28-1.81-.27-2.4-.72-2.18,.78-2.54,3.67-5.04,4.08-.97,.16-1.71-.51-2.64-.48-1.63,.04-2.92,1.66-4.56,.96-1.01,.35-.99,1.73-1.68,2.4-3.41-.54-8.88-4.28-11.52-.48-4.38,.3-6.73-1.44-10.56-1.68-.35-.45-.35-1.25-.96-1.44-2.18-.1-3.13,1.03-4.32,1.92-.87-.93-.21-2.62,0-3.84,.66-.54,1.53-.87,2.4-1.2-1.24-.76-1.64-4.92,.48-6-.3-.74-.67-1.41-.96-2.16-.02-1.14,1.1-1.14,1.2-2.16-.09-2.33-1.93-4.75-.24-6.72-.06-1.06-.98-1.26-1.2-2.16,.58-1.3,.71-1.73,.48-3.6h1.68c-.06-1.39-1.63-1.97-2.4-1.92-.42-1.9-.62-4.02-2.4-4.56,.54-.98,2.54-.5,3.12-1.44-2.13-3.34,2.82-6.48-1.2-8.64,.43-1.6,.21-3.21-.72-4.08-1.35,.25-.67,2.53-1.2,3.6-4.37-1.31-5.43-5.93-7.92-9.12,2.47-1.45,1.38-6.46,3.6-8.16-.05-.88-.33-.92,0-1.68,.62-2.15,3.99-2.66,2.88-5.76,1.46-1.66,3.04-3.2,4.32-5.04Z"/><path fill="#A4A2BD" d="M618,43.88c.27,.61,1.86-.1,2.16,.48,.87,3.87-1.62,6.35-1.44,10.32-2.74,.14-3.83,1.93-6,2.64-.73-.23-1.64-.28-1.92-.96-2.66,2.9-9.23-.88-12.24,1.68-2.34-1.45-7.69-1.82-9.36,.48-1.41-1.2-2.85,.31-4.08,.72-.99,.11-.9-.86-1.68-.96-.73-.01-.93,.51-1.44,.72-.27,3.02,1.6,6.57-.72,8.16-.44,7.01,5.4,19.08-3.6,20.16,.49,.88,1.17,1.8,1.68,3.36,.45,1.36,.66,2.85,.96,4.32-.3,.9-1.21,1.19-1.68,1.92,.12,.84,1.44,.48,1.2,1.68-.56,.72-1.88,.68-2.88,.96-.1,3.69-4.33,6.49-.72,9.12,.62,4.26-2.46,10.34,1.2,12.96-1.92,4.11,1.44,11.35-1.44,14.88,1.53,2.21-.17,6.22,.72,9.12-2.3,1.71-1.4,6.6-3.6,8.4-5.51-.41-6.44-5.4-8.4-9.36-.04-.68,.81-.47,.48-1.44-1.52-3.08-6.17-4-6.24-7.68-.02-.97,.83-1.52,.96-2.4,.29-1.98-.89-3.86-.48-6-1.87,.92-3.15,2.45-4.8,3.6-1.15-1.03-2.79-.68-4.32-1.44-1.35-.67-2.27-2.58-5.28-1.44-1.03,.07-.78-1.14-1.44-1.44-2.52,.59-4.39-.43-6.48,0,1.89,1.63,5.51,1.53,6,4.56-1.35,.47-2.35-.99-3.84,0-4.79-3.97-11.37-2.46-18.48-3.12-4.37-.4-8.2-3.11-12.48-2.88-.3-.58-1.28-.48-1.68-.96-2,1.12-5.89,.35-6.96,2.4-.24,3.39,2.33,5.92,1.2,10.08-1.75-.89-2.56-2.72-3.36-4.56-3.36,.6-4.95,0-6.72-1.68-2.57-2.43-.02-3.1-.24-6-.3-3.97-5.58-2.3-7.68-5.52-4.38,.26-7.95,1.33-9.36,4.56-1.4,.52-3.05,.79-3.6,2.16-1.87-.37-3.07-2.69-5.04-2.16-1.32-1.08-2.38-2.42-4.08-3.12-1.59,.16-2.97,1.02-4.56,.48-.4-3.42-4.01-2.37-5.28-.48-.16,.96,.63,.96,.48,1.92-1.77,.09-2.23-1.12-3.6-1.44-1.88,1.43-3.79-.3-5.28-.48-1.91-.23-5.57,1.39-8.4,0-.58-.46-.37-1.71-1.44-1.68-1.48-.12-1.6,1.12-2.64,1.44-1.83-.71-2.09,.12-3.36,.96-2.04-.76-5.34-.26-6.96-1.44-.97-3.19-3.83-4.5-6-6.48-4.4-.11-8.03-2.93-11.76,.48-.72-4.35,1.88-7.37,6.48-7.2,.07-.93-1.8-1.83-1.92-3.36,.94-1.06,.88-3.12,1.2-4.8,2.47,.11,4.07,3.12,6.24,4.32-.41-2.88,2.76-5.17-.24-7.2,.96-1.59-.26-3.47-.96-4.8,.15-.81,1.62-.3,2.16-.72,1.33-3.8-3.93-3.89-3.12-7.2-2.49-.26-4.73-1.72-6.48-.24-2.17-1.19-5.36-1.36-6.96-3.12,.35-3.43-3.17-4.96-4.08-7.92,.81-1.27,1.16-3,1.68-4.56,2.66,.1,3.84,3.93,6.24,4.8,2.72,.98,5.26-.16,7.92-.96-.27-2.27,.13-3.87,1.2-4.8-1.47-3.16-.88-6.83,1.92-8.16-3.91-2.72-10.77,1.35-14.64-1.2,3.16-2.63,9.96-2.8,15.12-2.64,1.06-2.14,1.2-3.66,.96-6.48,1.93-.16,2.88-2.28,5.04-1.44,.88,1.1-.46,1.72,.48,2.88-1.82-.04,.67,1.79-.96,1.44,.66,1.02,1.74,1.62,2.4,2.64,1.81-3.96,6.6,1.19,9.84-.24,1.73-.76,2.54-2.11,2.16-3.84,1.5,.18,2.15,1.21,3.36,1.68,1.71-.76,4.21-.46,5.28,.72,2.31-1.02,5.92-.28,8.16,.24,.56,.56,.64,1.6,1.44,1.92,1.87-.02,2.66-2.42,4.56-.96,.54-.34,.79-.97,1.44-1.2,2.32,.64,5.39,.53,7.2,1.68-.4,3.34,4.97,4.34,5.52,7.2,.31,1.6-1.09,2.7-.72,4.8-2.14,.2-3.81-2.09-5.76-2.88-4.77,.23-10.82,2.39-14.64,0-.09,2.75,4.05,3.29,4.56,6.24-3.41-.75-5.17-3.15-7.44-5.04-1.23-.11-1.58,.66-2.64,.72-1.67-.33-2.5-1.5-3.6-2.4-3.49-.07-6.79,.53-9.36-.72-1.08-.53-1.16-1.55-1.92-1.92-1.64-.81-4.12-.38-6.24-1.44,.89,1.48,.49,3.5,.96,4.8,.37,1.03,1.17,.92,1.2,1.92,.04,1.34-1.8,2.35-.72,4.08-.18,.54-1.02,.43-1.44,.72,.03,1.01,.93,1.15,.96,2.16-1.25,.9-3.66,2.41-2.16,4.56,5.04-.67,11.67,.88,13.68,4.8,3.44,.64,5.73,2.43,8.64,3.6,1.76-1.21,3.71-1.74,6-.72,1.59,4.81,11.6,1.2,14.4,4.8-4.19,1.93-12.35,.86-16.08-.72-.98,.14-.81,1.43-1.68,1.68-1.33-.67-1.79-2.21-3.6-2.4-.54,.1-.1,1.18-.24,1.68-2.23-.07-4.31,.66-5.28-.96-2.05,.36-4.56-.65-6-1.68-1.06,.22-1.24,1.32-2.4,1.44,.65,1.73-.64,2.44-.72,3.36-2.73,0-3.53-2.89-6.24-2.16-.34,4.79,.19,7.72-.48,13.2,4.37,.35,6.75,2.69,10.08,4.08,.8-.16,1.17-.75,1.92-.96,6.68,2.01,13.78-3.81,18,.96h4.08c.54,.5,1.37,.71,1.44,1.68,1.68-.72,3.36,.2,4.32,.96,.78-.26,.97-1.11,1.68-1.44,3.84,.48,6.33-.39,7.2-2.88,2.2,.84,3.35,2.73,4.08,5.04,4.98-1.91,6.5,3.29,10.56,3.84v-1.68c0-1.04-1.74-.34-1.92-1.2-.04-1.72,2.05-1.31,2.4-2.64,.13-2.69-.76-4.36-.48-7.2-1.43,.8-5.42,1.11-6.48-.96-5.16,.87-13.32,1.37-17.76-.48,2.57-4.37,13.6-.1,16.8-3.84,.32-.38-.4-1.06,.72-.96-.72-1.36-1.75-2.41-1.68-4.56,1.36-.4,3.34-.18,4.56-.72-1-2.76-1.98-5.54-1.68-9.6,2.91-1.51,.3-3.91-1.2-5.04-.12-.75,.34-.94,.48-1.44-.56-.8-1.71-1.01-2.16-1.92,.32-3.36-1.27-6.44,.24-8.88-.96-1.33-1.95-3.07-3.36-4.8-1.05-1.28-2.74-1.91-2.88-3.6-.15-1.75,1.09-4,1.2-6.24,4.38,2.02,9.1,9.07,15.6,3.84,7.47-.25,9.5,3.45,15.12,5.04,1.16-.04,1.29-1.11,2.16-1.44,5.52-.16,9.99,.73,13.68,2.4,.47,2.01,2.03,2.93,4.56,2.88,2.09,1.59,5.52,1.84,7.92,3.12,2.04-1.06,4.14-3.15,6.96-1.44,1.12,.09,.67,1,1.2,1.44,3.99,3.32,13.88-1.67,16.8,2.88-4.06,2.33-13.88,2.7-18.96,.96-1.08,.28-.6,2.12-1.68,2.4-1.4-.58-2.38-2.05-4.08-2.64-.78-.27-1.88-.15-2.88-.48-.59-.2-1.5-1.14-1.92-1.2-.81-.11-2.55,1.08-3.6,.48-.92-.12-.75,.85-1.2,1.2-3.78-.34-5.68,1.2-7.44,2.88-.13,1.01,.42,1.34,.48,2.16-2.24,.16-2.63-1.53-4.08-2.16-2.66,.52-5.09-.04-6.48-1.44-3.61,.72-7.29-.33-9.84-1.44-.5-.94-.69-2.19-1.68-2.64-1.78,.02-2.3,2.44-4.32,1.44,1.87,2.74,5.77,2.36,6.48,5.28,.85,3.51-2.59,5.46-2.88,7.92-.51,4.31,4.6,6.16,6.72,8.88,1.4-.55,2.64-.28,4.08-.24,2.66,.08,5.59-1.37,7.68-.96,.81,.16,1.39,.92,2.16,.96,1.14,.06,2.94-.56,4.08-1.2,.64-.36,1.03-1.33,1.68-1.68,.38-.2,.94,.14,1.44,0,1.81-.51,3.97-2.66,7.2-2.16,1.77,.27,4.02,1.83,6.96,1.44,3.66-.49,5-4.93,8.64-5.52-.2,1.94,1.66,3.9,1.68,5.28,.05,3.43-5.84,5.09-5.28,8.88-1.4,2.52-5.55,2.29-8.16,3.6-1.67-.77-1.99-1.4-3.84-.48-2-1.23-4.59-1.76-5.04,1.2-2.63,2.05-6.12,1-9.12,1.68-.88,.2-1.52,1.16-2.4,1.44-1.37,.43-2.94-.09-4.08,.24-1.55,.44-2.18,2.19-3.84,2.16-.1-.82,.1-1.35,.24-1.92-.43-.77-1.58-.82-2.16-1.44-1.38,.38-2.01,1.51-2.4,2.88-1.2-.08-1.97-.59-3.36-.48-.62,2.66,.89,6.92,.24,9.6,1.34,1.22,3.36,1.76,3.84,3.84,3.45-.04,5.29-2.25,8.88-1.44,.78-.66,.46-2.42,1.44-2.88,.28,.04,.43-.05,.48-.24,3.47,.85,6.63-1.38,9.84-1.44,.91-.02,1.76,.34,2.64,.24,3.37-.38,5.67-3.35,8.64-3.84,.21,1.17-.33,1.59-.48,2.4,2.27-.76,3.42-2.66,6-3.12-1.94,3.59-7.08,5.23-7.2,9.84,1.74-2.95,4.78-4.88,9.36-4.32,1.1,1.78,4.64,1.12,6.72,1.92-.18,1.26-.82,2.06-1.2,3.12,3.01,1.25,7.52,6.47,10.32,2.16,1.7,.38,2.46,1.7,3.12,3.12,1.57-.92,3.56-.05,4.56,.96,.37-.99,1.07-1.65,1.68-2.4-1.5-1.06-2.81-2.31-3.6-4.08-.2-7,3.88-9.72,3.6-16.8,3.35-8.16-7.64-7.76-11.04-11.52,.1-1.02-.23-2.47,.24-3.12-.42-.86-1.36-1.2-1.92-1.92-.46-4.9,6.23-1.37,8.16-3.6,1.29-.09,1.16,1.24,2.4,1.2,2.21-1.33-.2-6.07,2.4-7.2,2.52-.31,3.78,1.93,5.76,.72-.49-3.64,.76-8.66-2.16-10.32-2.47,1.57-6.13-.13-6.72-2.64-.88-.4-1.44-1.12-2.88-.96,.15-1.4,.74-1.95,0-3.12-1.75,.71-3.59-.14-4.56-.96-.86,2.32-4.08,1.02-6.24,1.68-1.66,.51-1.31,1.75-2.4,2.64-2.11-.69-3.65-1.95-3.84-4.56-.92-.42-1.7,.3-2.64,.24-1.65-.11-2.32-1.26-3.84-1.92-2.32-1-5.08-1.05-6.48-2.64-.44-2.92,.81-4.15,1.68-5.76,4.51-.85,10.51-.21,11.52-4.56,1.44-.56,3.02-.98,3.84-2.16,2.06,1.3,4.82,1.9,6.72,3.36,5.77-.47,10.71-1.77,13.68-5.04,5.28,.04,13.34,4.61,19.2,2.64,1.43-.48,2.82-1.86,4.32-2.64,4.3-2.22,9.99-3.47,16.08-4.08,8.9-.89,11.93,4.19,13.2,12.48Zm-133.44,70.32c.45,.61,1.49,.61,1.68-.24-.62-.22-1.36-.39-1.68,.24Zm57.36,4.08c.42-.14,1.41,.29,1.44-.24-.31-.33-1.43-.42-1.44,.24Z"/><path fill="#A4A2BD" d="M219.84,34.28c-1.03,5.14-5.22,7.14-2.64,13.2,.9,2.12,2.26,3.32,1.68,6.72-.2,1.18-1.22,2.31-.72,4.08-1.5,.98-1.17,3.79-1.92,5.52,2.77,2.38,2.27,10.66,1.2,14.64-.51,.93-1.51,1.37-1.92,2.4,.08,3.58-1,6.64-1.68,10.08,.58,1.34,1.72,2.12,2.4,3.36,.19,1.39-.35,2.05-.24,3.36-3.96,4.26,1.73,11.83-.96,17.04-3.1-3.78-4.33-11.72-3.6-17.76-.36-.84-1.68-.72-2.4-1.2,1.89-3.41,2.73-8.01,1.92-12.24-.06-.66-.89-.55-1.2-.96-.17-3.27-1.91-4.97-3.36-6.96-.82,.04-1.55,.97-2.16,.48-.31-1.65,1.27-2.24,1.44-3.84,.21-1.94-1.39-4.33,.48-6-1.12-3.34-1.22-9.4,1.68-10.8-.19-1.49-.98-2.38-1.68-3.36-.11-.75,.34-.94,.48-1.44-1.6-1.9-1.73-4.69-1.68-7.68-2.21-.19-3-1.8-4.08-3.12-.09-5.15,8.03-6.94,10.32-2.88,2.32-3.73,3.21-2.91,8.64-2.64Z"/><path fill="#A4A2BD" d="M274.8,38.84c.4,4.8,1.31,9.09,5.28,10.32,.82,1.1,.95,2.89,2.64,3.12-.02,1.36-1.59,2.2-1.92,3.6-.05,.23,.34,.96,.24,1.2-.67,1.62-2.5,2.4-2.64,3.84-.11,1.13,1.26,2.39,.96,3.6-.31,1.23-1.49,.84-2.16,1.92,.76,2.45-.43,6.26,.72,8.64-2.86,1.93-.12,5.23-1.92,7.92,.06,.74,.86,.74,1.2,1.2-1.43,2.52-.15,6.54-1.44,8.88,1.31,1.34,.12,3.41-.24,4.8-1.01,3.89,1.61,9.2-.96,11.52,.38,2.04,1.92,4.13,2.4,5.28-2.15,.3-4.72-.11-6.24-1.2-2-1.43-2.64-5.74-4.56-8.4-.46-.64-1.81-1.47-2.16-2.16-1.04-2.05-.88-3.65-1.92-5.04-1.36-1.81-3.54-3.02-4.56-5.52-2.43-.85-3.5-3.06-4.56-5.28-.56-.96-1.81-1.23-2.64-1.92-.18-.57-.47-1.66,0-2.16-.59-.53-1.71-.53-2.88-.48-.58-1.02-.89-2.31-1.92-2.88-2.7,.3-3.58-1.22-5.76-1.44-.64-1.54,.74-2.02,.96-3.36-.9-1.97-3.92-1.84-4.32,0-.42,1.89,1.4,2.13,1.44,4.08-2.45,.59-3.47,2.61-4.56,4.56,1.12,2.07,.13,3.56,1.2,5.28,1,1.61,3.77,1.34,3.36,4.32-.39,2.78-5.31,3.53-3.6,8.16-.68,.84-1.22,1.82-2.16,2.4-2.54,.06-4.61-.35-5.76-1.68-.38,.5-.78,.98-.96,1.68-1.55-.52-1.21-2.79-1.44-4.56-.38-2.94-1.31-6.18,0-8.88-.21-.59-.56-1.04-.48-1.92,1.42-1.46,2.29-3.47,3.6-5.04v-3.12c-2.4-.96-1.52-5.2-3.6-6.48,2.52-3.4-2.85-6.14-.96-9.6-3.39-2.27,1.28-7.58-1.92-9.84,.3-2.5,.86-4.74,1.2-7.2,2.4,.3,2.85-1.73,5.04-.96,.86-.42,1.22-1.34,1.44-2.4,.81,.15,1.07,.85,1.92,.96,1.4-.71,2.88-3.41,4.8-1.44,.12,.76-.43,.85-.24,1.68,2.81,3.67,7.02,5.94,11.52,7.92,.4,6.48,4.36,9.4,6.24,14.4,.02,1.14-1.26,.98-1.2,2.16,3.67,2.54,1.13,5.83,1.92,10.08,1.13,.95,2.22,1.94,2.16,4.08,2.41,1.99,2.56,6.24,5.76,7.44,.88,1.92,1.43,4.17,3.12,5.28,.3,2.62,2.88,3.93,4.08,6,.52,.89,.23,2.08,1.44,2.64,1.08-3.27,.27-8.09-1.68-11.52,1.09-4.12-2.55-5.1-2.64-8.16-.03-1.02,.34-2.02,.24-3.12-.48-5.07-4.65-8.49-.72-11.76-.02-2.07-.87-4.62,1.2-5.04-1.04-1.16-.1-2.89,.48-3.84-.3-1.18-1.25-.81-1.68-1.92-.38-.99,.14-2.38-.24-3.36-.63-1.65-1.89-1.43-2.88-2.64,.7-2.02,2.24-3.2,4.32-3.84-.43-1.03-.62-2.03-.48-3.12,.27-2.06,3.34-6.65,6-7.44,1.03-.31,2.17,.15,3.12-.24Z"/><path fill="#A4A2BD" d="M134.4,43.88c.85-.27,1.71-.53,2.16-1.2,.68,.44,.53,1.71,1.44,1.92,1.15-.05,1.76-.64,3.12-.48,.24,.32,.4,.72,.72,.96,.23,1.52-1.23,1.33-1.2,2.64,.82,2.06,.61,3.7,1.2,5.76,.18,.62,.85,.87,1.2,1.68,.14,.32-.17,.9,0,1.2,.55,.96,1.56,1.45,1.68,2.4,.34,2.69-3.95,7.64-2.16,11.04-.62,1.52-1.13,3.11-.96,4.8-1.12,.16-2,.56-2.64,1.2,.53,.59,.53,1.71,.48,2.88-.35,.53-.78,.98-1.2,1.44,.88,2.64-.28,7.32,1.44,9.12,1.09,.29,1.44-.89,2.16-.24-.08,1.52-1.04,2.16-1.44,3.36,1.29,1.94-.28,4.1-.48,5.76-.13,1.15,.66,2.51,.72,3.6,.15,3.02-.51,5.68-2.4,6.96-.02,1.75,2.75,2.55,1.2,4.32,.12,1,1.36,.88,1.44,1.92,0,.96-.48,1.44-.48,2.4,3.09-1.13,4.42-3.42,8.16-3.12,1.1,.09,1.97,.8,3.36,.24,1.27,.89,3.68,.64,5.52,.96,2.66-3.02,8.02-3.34,13.68-3.36,.97,1.96,2.86,1.27,5.04,1.2,2.37-.07,5.39,1.12,6.96,.72,1.89-.48,2.43-3.99,6.24-3.12,4.86,3.55,10.21-3.21,15.84-1.2-3.6,3.6-9.27,5.13-15.84,5.76-.97,.15-.59,1.65-.96,2.4-1.8,.2-1.87-1.33-3.84-.96,2.27,.91,3.45,2.56,3.6,5.04-5.78-.18-7.1,4.1-10.56,6.24-2.1-1.21-4.14-1.09-6-2.64-1.32-.04-1.64,.92-3.12,.72-1.04,0-.6-1.48-1.68-1.44-5.57,.83-10.88,1.47-17.28,.48-.93,.03-.95,.97-1.68,1.2-.75,.11-.94-.34-1.44-.48-.59,.61-.91,1.49-1.68,1.92-2.49-.85-7.83,1.53-8.16-1.92-.6,1.15-.8,.32-1.68,0-.95,.89-1.27,2.41-2.64,2.88-1.5-.5-3.65-.35-5.28-.72,.33-2.15,1.5-3.46,2.4-5.04-1.27-1.86-.57-5.12,0-7.2-1.38-1.98-1.74-4.06-1.44-6.24,.09-.64,.85-1.52,.96-2.4,.06-.44-.35-1.08-.24-1.44,.16-.52,1.02-.93,1.2-1.44,.33-.9,.57-3.19,.48-3.84-.11-.82-1.02-.99-1.44-2.16-1.01-2.8,.72-6.96-1.2-8.4-.73-.07-1.64,.9-1.92,.48-.57-1.21,.88-2.26,1.2-3.36-.44-1.93-.91-4.76,.48-6-.64-1.6-.85-3.63-1.92-4.8,1.18-.83,2.07-3.39,1.2-4.8-2.61-.13-2.6,2.36-2.88,4.56-2.68-.38-3.68-3.1-4.8-5.04-1.17-2.04-2.32-4.28-3.12-6.48,3.18-1.38,1.85-7.27,4.8-8.88-1.14-4.22,5.08-4.08,3.84-8.4,1.91-1.53,3.34-3.54,5.04-5.28,1.27,.97,3.99,.49,4.8,1.92Z"/><path fill="#A4A2BD" d="M122.64,84.44c.11,.99-.6-.19-.96,.48,.36,.44,.25,1.35,.72,1.68,0,.8-1.36,.24-1.68,.72-.01,.89,.24,1.52,.48,2.16,0,.72-.62,.82-.72,1.44,.18,2.44,.58,4.62-1.68,5.04-1.53,5.67-3.71,10.69-7.44,14.16,.29,.35,.92,.36,1.2,.72-.13,1.55-2.19,1.61-1.44,3.36,1.28,.08,2.9-1.61,4.56-1.2,2.39,.6,2.89,4.82,.72,6.24h-3.12c-1.29,1.01-1.41,3.99-1.2,5.76-.48,.24-.84,.6-1.2,.96-.44,3.88-2.79,5.85-4.32,8.64-5.87,2.28-16.64,4.09-21.12-.72-1.34-1.44-1.63-3.52-3.6-4.32-.76-.12-.54,.74-1.44,.48-1.75-.17-2.12-1.72-4.08-1.68-.54-4.11-5.81-4.19-4.56-9.36-.41-.71-1.56-.68-2.16-1.2-1.3-2.85,.08-5.81,.96-7.92-.86-.74-2.44-.76-3.12-1.68,.35-1.53-1.33-2.32-1.44-3.6-.13-1.63,1.21-2.83,1.92-4.32-.7-2.89-.75-5.57,0-8.4-.34-.54-1.3-.46-1.68-.96-.4-2.62,1.56-3.78,1.44-5.76-.11-1.84-2.72-3.53-1.2-6,.93-.88,3.42-1.01,4.32,0,.39,.77,.11,1.3,0,2.16,1.13-.63,1.45-2.07,2.64-2.64,2.18,1.5,4.77,2.59,4.8,6.24-1.18,1.06-1.69,2.79-1.92,4.8,2.58,4.22,5.01,8.59,6.72,13.68,.01,.73-.51,.93-.72,1.44,1.14,5.74-.12,13.88,6.24,14.4,.3,1.86,1.1,3.22,1.92,4.56,.6,.04,.58-.54,.96-.72,1.03,.25,1.54,1.02,2.64,1.2,1.23-.08,.73-1.66,2.16-.96,.76-.84,.89-2.31,2.16-2.64-.11-2.42-2.02-3.03-1.2-5.76,2.03-1.09,4.07-2.17,5.52-3.84-.22-1.01-1.23,.16-1.44-.96-.02-1.86,1.74-1.94,3.12-2.4,.39-1.37,.9-2.62,1.92-3.36-.04-2.04-.02-4.02,.24-5.76,.06-.78-.75-.69-.96-1.2-.03-1.55,.05-2.99,.48-4.08-.19-.85-1.46-.62-1.44-1.68-.19-1.23,1.1-.98,1.2-1.92-.15-.73-.53-1.23-1.44-1.2,0-.57,.41-.71,.24-1.44-2.04-1.24-3.1-3.46-4.56-5.28,.36-1,1.68-1.04,2.64-1.44-.26-1.18-1.5-1.38-2.16-2.16-.83-3.7,.15-7.27,2.64-8.4-.05-.83-.85-.91-.96-1.68,.47-.81,.67-1.89,1.92-1.92,1.33,3.69,5.92,4.13,6.24,8.4,2.14,.37,2.86,2.56,5.04,3.84,2.9,1.7,7.24,1.49,7.2,6Zm-47.04,29.04c-.52-.44-.63-1.29-1.2-1.68-.86,.85,.6,2.33,1.2,1.68Z"/></svg>